#Comment line ignore any data following # character 
#Hierarchical Translation and Rotation (.htr) file 
[Header]	
#Header keywords are followed by a single value 
FileType HTR		#Single word string
DataType HTRS		#Translation followed by rotation and scale data
FileVersion 1		#integer
NumSegments 64		#integer
NumFrames 3		#integer
DataFrameRate 30		#integer, data frame rate in this file
EulerRotationOrder ZYX
CalibrationUnits mm
RotationUnits Degrees
GlobalAxisofGravity Y
BoneLengthAxis Y
ScaleFactor 1.00
[SegmentNames&Hierarchy]
#CHILD	PARENT
Pinger_Root GLOBAL
Pelvis Pinger_Root
L_Hip Pelvis
R_Hip Pelvis
Rear_Leg01 Pelvis
Spine1 Pelvis
L_Leg01 L_Hip
L_Leg02 L_Leg01
L_Leg03 L_Leg02
L_Foot L_Leg03
L_Toe1_01 L_Foot
L_Toe2_01 L_Foot
L_Toe3_01 L_Foot
planeAlignerLeft L_Foot
L_Toe1_02 L_Toe1_01
L_Toe1_03 L_Toe1_02
L_Toe2_02 L_Toe2_01
L_Toe2_03 L_Toe2_02
L_Toe3_02 L_Toe3_01
L_Toe3_03 L_Toe3_02
planeLockWeightLeft planeAlignerLeft
R_Leg01 R_Hip
R_Leg02 R_Leg01
R_Leg03 R_Leg02
R_Foot R_Leg03
planeAlignerRight R_Foot
R_Toe1_01 R_Foot
R_Toe2_01 R_Foot
R_Toe3_01 R_Foot
planeLockWeightRight planeAlignerRight
R_Toe1_02 R_Toe1_01
R_Toe1_03 R_Toe1_02
R_Toe2_02 R_Toe2_01
R_Toe2_03 R_Toe2_02
R_Toe3_02 R_Toe3_01
R_Toe3_03 R_Toe3_02
Rear_Leg02 Rear_Leg01
Rear_Leg03 Rear_Leg02
Rear_Leg04 Rear_Leg03
Rear_Foot Rear_Leg04
planeAlignerCenter Rear_Foot
Rear_Toe1_01 Rear_Foot
Rear_Toe2_01 Rear_Foot
Rear_Toe3_01 Rear_Foot
planeLockWeightCenter planeAlignerCenter
Rear_Toe1_02 Rear_Toe1_01
Rear_Toe1_03 Rear_Toe1_02
Rear_Toe2_02 Rear_Toe2_01
Rear_Toe2_03 Rear_Toe2_02
Rear_Toe3_02 Rear_Toe3_01
Rear_Toe3_03 Rear_Toe3_02
Back_Bone Spine1
Head Spine1
Motor_Bone Back_Bone
Ping_Mechanism Back_Bone
BN_LookIK Head
bottomMouth Head
L_Mouth01 Head
L_mouthFront Head
mouthGun Head
R_Mouth01 Head
R_mouthFront Head
TopMouth Head
weapon_bone Head
[BasePosition]
#SegmentName Tx, Ty, Tz, Rx, Ry, Rz, BoneLength
Pinger_Root 0.000000 0.000000 0.000000 -90.000000 0.000000 0.000000 10.000000 
Pelvis 0.000000 0.000000 0.000000 0.000000 0.000000 0.000000 10.000000 
L_Hip 0.000000 0.000000 0.000000 0.000000 0.000000 0.000000 10.000000 
R_Hip 0.000000 0.000000 0.000000 0.000000 0.000000 0.000000 10.000000 
Rear_Leg01 0.000000 0.000000 0.000000 0.000000 0.000000 0.000000 10.000000 
Spine1 0.000000 0.000000 0.000000 0.000000 0.000000 0.000000 10.000000 
L_Leg01 0.000000 0.000000 0.000000 0.000000 0.000000 0.000000 10.000000 
L_Leg02 0.000000 0.000000 0.000000 0.000000 0.000000 0.000000 10.000000 
L_Leg03 0.000000 0.000000 0.000000 0.000000 0.000000 0.000000 10.000000 
L_Foot 0.000000 0.000000 0.000000 0.000000 0.000000 0.000000 10.000000 
L_Toe1_01 0.000000 0.000000 0.000000 0.000000 0.000000 0.000000 10.000000 
L_Toe2_01 0.000000 0.000000 0.000000 0.000000 0.000000 0.000000 10.000000 
L_Toe3_01 0.000000 0.000000 0.000000 0.000000 0.000000 0.000000 10.000000 
planeAlignerLeft 0.000000 0.000000 0.000000 0.000000 0.000000 0.000000 10.000000 
L_Toe1_02 0.000000 0.000000 0.000000 0.000000 0.000000 0.000000 10.000000 
L_Toe1_03 0.000000 0.000000 0.000000 0.000000 0.000000 0.000000 10.000000 
L_Toe2_02 0.000000 0.000000 0.000000 0.000000 0.000000 0.000000 10.000000 
L_Toe2_03 0.000000 0.000000 0.000000 0.000000 0.000000 0.000000 10.000000 
L_Toe3_02 0.000000 0.000000 0.000000 0.000000 0.000000 0.000000 10.000000 
L_Toe3_03 0.000000 0.000000 0.000000 0.000000 0.000000 0.000000 10.000000 
planeLockWeightLeft 0.000000 0.000000 0.000000 0.000000 0.000000 0.000000 10.000000 
R_Leg01 0.000000 0.000000 0.000000 0.000000 0.000000 0.000000 10.000000 
R_Leg02 0.000000 0.000000 0.000000 0.000000 0.000000 0.000000 10.000000 
R_Leg03 0.000000 0.000000 0.000000 0.000000 0.000000 0.000000 10.000000 
R_Foot 0.000000 0.000000 0.000000 0.000000 0.000000 0.000000 10.000000 
planeAlignerRight 0.000000 0.000000 0.000000 0.000000 0.000000 0.000000 10.000000 
R_Toe1_01 0.000000 0.000000 0.000000 0.000000 0.000000 0.000000 10.000000 
R_Toe2_01 0.000000 0.000000 0.000000 0.000000 0.000000 0.000000 10.000000 
R_Toe3_01 0.000000 0.000000 0.000000 0.000000 0.000000 0.000000 10.000000 
planeLockWeightRight 0.000000 0.000000 0.000000 0.000000 0.000000 0.000000 10.000000 
R_Toe1_02 0.000000 0.000000 0.000000 0.000000 0.000000 0.000000 10.000000 
R_Toe1_03 0.000000 0.000000 0.000000 0.000000 0.000000 0.000000 10.000000 
R_Toe2_02 0.000000 0.000000 0.000000 0.000000 0.000000 0.000000 10.000000 
R_Toe2_03 0.000000 0.000000 0.000000 0.000000 0.000000 0.000000 10.000000 
R_Toe3_02 0.000000 0.000000 0.000000 0.000000 0.000000 0.000000 10.000000 
R_Toe3_03 0.000000 0.000000 0.000000 0.000000 0.000000 0.000000 10.000000 
Rear_Leg02 0.000000 0.000000 0.000000 0.000000 0.000000 0.000000 10.000000 
Rear_Leg03 0.000000 0.000000 0.000000 0.000000 0.000000 0.000000 10.000000 
Rear_Leg04 0.000000 0.000000 0.000000 0.000000 0.000000 0.000000 10.000000 
Rear_Foot 0.000000 0.000000 0.000000 0.000000 0.000000 0.000000 10.000000 
planeAlignerCenter 0.000000 0.000000 0.000000 0.000000 0.000000 0.000000 10.000000 
Rear_Toe1_01 0.000000 0.000000 0.000000 0.000000 0.000000 0.000000 10.000000 
Rear_Toe2_01 0.000000 0.000000 0.000000 0.000000 0.000000 0.000000 10.000000 
Rear_Toe3_01 0.000000 0.000000 0.000000 0.000000 0.000000 0.000000 10.000000 
planeLockWeightCenter 0.000000 0.000000 0.000000 0.000000 0.000000 0.000000 10.000000 
Rear_Toe1_02 0.000000 0.000000 0.000000 0.000000 0.000000 0.000000 10.000000 
Rear_Toe1_03 0.000000 0.000000 0.000000 0.000000 0.000000 0.000000 10.000000 
Rear_Toe2_02 0.000000 0.000000 0.000000 0.000000 0.000000 0.000000 10.000000 
Rear_Toe2_03 0.000000 0.000000 0.000000 0.000000 0.000000 0.000000 10.000000 
Rear_Toe3_02 0.000000 0.000000 0.000000 0.000000 0.000000 0.000000 10.000000 
Rear_Toe3_03 0.000000 0.000000 0.000000 0.000000 0.000000 0.000000 10.000000 
Back_Bone 0.000000 0.000000 0.000000 0.000000 0.000000 0.000000 10.000000 
Head 0.000000 0.000000 0.000000 0.000000 0.000000 0.000000 10.000000 
Motor_Bone 0.000000 0.000000 0.000000 0.000000 0.000000 0.000000 10.000000 
Ping_Mechanism 0.000000 0.000000 0.000000 0.000000 0.000000 0.000000 10.000000 
BN_LookIK 0.000000 0.000000 0.000000 0.000000 0.000000 0.000000 10.000000 
bottomMouth 0.000000 0.000000 0.000000 0.000000 0.000000 0.000000 10.000000 
L_Mouth01 0.000000 0.000000 0.000000 0.000000 0.000000 0.000000 10.000000 
L_mouthFront 0.000000 0.000000 0.000000 0.000000 0.000000 0.000000 10.000000 
mouthGun 0.000000 0.000000 0.000000 0.000000 0.000000 0.000000 10.000000 
R_Mouth01 0.000000 0.000000 0.000000 0.000000 0.000000 0.000000 10.000000 
R_mouthFront 0.000000 0.000000 0.000000 0.000000 0.000000 0.000000 10.000000 
TopMouth 0.000000 0.000000 0.000000 0.000000 0.000000 0.000000 10.000000 
weapon_bone 0.000000 0.000000 0.000000 0.000000 0.000000 0.000000 10.000000 
#Beginning of Data. Separated by tabs
#Fr	Tx	Ty	Tz	Rx	Ry	Rz	SF
[Pinger_Root]
66 -0.000020 -2500.000000 0.000000 -0.000075 -0.000000 -0.000020 2500.000000
67 -0.000020 -2500.000000 0.000000 -0.000075 -0.000000 -0.000020 2500.000000
68 -0.000020 -2500.000000 0.000000 -0.000075 -0.000000 -0.000020 2500.000000
[Pelvis]
66 75.926598 986.332275 4265.308594 -75.217964 -70.417542 71.862701 4378.523926
67 72.561836 979.692383 4297.876953 -75.287926 -71.396324 71.465919 4408.719727
68 70.761917 972.907410 4326.889648 -75.449356 -72.917946 71.086411 4435.484863
[L_Hip]
66 5.766392 125.831482 872.656799 159.805878 -55.990459 117.443153 881.701050
67 5.766392 125.831482 872.656799 159.759369 -54.826866 118.006271 881.701050
68 5.766392 125.831482 872.656799 159.733459 -53.663197 118.552048 881.701050
[R_Hip]
66 5.765438 125.836372 -872.654907 36.628323 59.437809 123.578857 881.699829
67 5.765438 125.836372 -872.654907 36.879658 58.413254 123.867149 881.699829
68 5.765438 125.836372 -872.654907 37.114372 57.388000 124.139015 881.699829
[Rear_Leg01]
66 -192.298416 -925.602966 -0.001907 175.148972 5.039547 -169.661270 945.367432
67 -192.298416 -925.602966 -0.001907 174.728531 5.202629 -169.465958 945.367432
68 -192.298416 -925.602966 -0.001907 174.237305 5.291597 -168.777985 945.367432
[Spine1]
66 290.604584 5.007505 0.000477 1.366378 -4.963559 5.558754 290.647736
67 290.604584 5.007505 0.000477 1.885029 -4.830455 6.356534 290.647736
68 290.604584 5.007505 0.000477 2.495667 -4.565251 7.686485 290.647736
[L_Leg01]
66 761.932007 -0.002384 -0.069261 16.645418 -32.920555 -16.260590 761.932068
67 761.932007 -0.002384 -0.069261 17.356068 -30.992786 -16.756582 761.932068
68 761.932007 -0.002384 -0.069261 18.033915 -29.060059 -17.215637 761.932068
[L_Leg02]
66 1441.140503 -0.000954 -0.000715 2.642274 -0.029503 -120.000931 1441.140503
67 1441.140503 -0.000954 -0.000715 2.563556 -0.033305 -119.150314 1441.140503
68 1441.140503 -0.000954 -0.000715 2.494644 -0.045089 -118.599922 1441.140503
[L_Leg03]
66 1686.963989 -0.000715 -0.000954 -0.043276 0.020619 122.482857 1686.963989
67 1686.963989 -0.000715 -0.000954 -0.042813 0.019723 122.405052 1686.963989
68 1686.963989 -0.000715 -0.000954 -0.041739 0.019300 122.134056 1686.963989
[L_Foot]
66 3041.570068 -30.715107 11.297464 0.989867 10.799238 47.311291 3041.746094
67 3041.570068 -30.715107 11.297464 1.292836 11.095235 47.592930 3041.746094
68 3041.570068 -30.715107 11.297464 1.406514 11.353451 48.160294 3041.746094
[L_Toe1_01]
66 -188.216690 -224.732346 -21.137953 92.595985 -5.788540 -171.635620 293.899567
67 -188.216690 -224.732346 -21.137953 92.742668 -5.902099 -171.883972 293.899567
68 -188.216690 -224.732346 -21.137953 92.889847 -6.015023 -172.132660 293.899567
[L_Toe2_01]
66 200.746536 -219.926590 148.838394 -87.698090 -23.128574 -46.651905 332.896027
67 200.746536 -219.926590 148.838394 -88.049599 -23.544907 -47.159855 332.896027
68 200.746536 -219.926590 148.838394 -88.283531 -23.838392 -47.704731 332.896027
[L_Toe3_01]
66 188.832520 -219.859131 -191.078659 -101.918373 18.752457 -57.965691 347.140900
67 188.832520 -219.859131 -191.078659 -101.696022 18.227768 -58.901878 347.140900
68 188.832520 -219.859131 -191.078659 -101.465424 17.706718 -59.837265 347.140900
[planeAlignerLeft]
66 55.873116 -544.218628 64.501480 169.400360 -80.350967 92.989845 550.868469
67 54.092850 -548.282959 68.201897 169.357193 -79.890877 92.675949 555.150208
68 52.312603 -552.347290 71.902290 169.302170 -79.430870 92.373650 559.458740
[L_Toe1_02]
66 413.761139 0.000477 0.000000 0.001384 -25.923368 0.001384 413.761139
67 413.761139 0.000477 0.000000 0.001384 -25.929337 0.001384 413.761139
68 413.761139 0.000477 0.000000 0.001384 -25.935308 0.001384 413.761139
[L_Toe1_03]
66 464.317322 0.000358 -0.000089 0.004112 56.833546 0.004112 464.317322
67 464.317322 0.000358 -0.000089 0.004092 56.669540 0.004092 464.317322
68 464.317322 0.000358 -0.000089 0.004073 56.505535 0.004073 464.317322
[L_Toe2_02]
66 342.235809 -0.000477 0.000238 0.001185 -74.331619 0.001185 342.235809
67 342.235809 -0.000477 0.000238 0.001185 -74.180008 0.001185 342.235809
68 342.235809 -0.000477 0.000238 0.001185 -74.028397 0.001185 342.235809
[L_Toe2_03]
66 420.210846 -0.000715 0.000000 -179.907822 89.298073 -179.904327 420.210846
67 420.210846 -0.000715 0.000000 0.000000 89.777069 0.003500 420.210846
68 420.210846 -0.000715 0.000000 0.000000 89.747437 0.003496 420.210846
[L_Toe3_02]
66 329.270111 0.000954 0.000000 0.001371 -82.210686 0.001371 329.270111
67 329.270111 0.000954 0.000000 0.001176 -82.122986 0.001176 329.270111
68 329.270111 0.000954 0.000000 0.001176 -81.997734 0.001176 329.270111
[L_Toe3_03]
66 439.137451 -0.001907 0.000954 -179.998337 70.728119 -179.994781 439.137451
67 439.137451 -0.001907 0.000954 -179.998215 71.398659 -179.994675 439.137451
68 439.137451 -0.001907 0.000954 -179.998077 72.069397 -179.994537 439.137451
[planeLockWeightLeft]
66 1000.000366 -0.000181 -0.000095 -0.011826 -0.004376 0.005620 1000.000366
67 1000.000366 -0.000190 -0.000095 -0.011826 -0.004376 0.005620 1000.000366
68 1000.000366 -0.000198 -0.000095 -0.011826 -0.004376 0.005620 1000.000366
[R_Leg01]
66 761.455627 -0.001907 -0.000358 133.987488 -10.955880 32.731106 761.455688
67 761.455627 -0.001907 -0.000358 132.895645 -10.641312 32.235920 761.455688
68 761.455627 -0.001907 -0.000358 131.534546 -10.125305 32.173527 761.455688
[R_Leg02]
66 1441.140625 0.000000 -0.000238 -2.344215 -1.041201 -117.682861 1441.140625
67 1441.140625 0.000000 -0.000238 -2.235574 -0.922157 -117.202797 1441.140625
68 1441.140625 0.000000 -0.000238 -2.125937 -0.804023 -116.722511 1441.140625
[R_Leg03]
66 1686.963989 0.000954 0.001431 0.126180 -0.080890 144.616058 1686.963989
67 1686.963989 0.000954 0.001431 0.121585 -0.076081 143.275711 1686.963989
68 1686.963989 0.000954 0.001431 0.116877 -0.071378 141.934433 1686.963989
[R_Foot]
66 3041.560059 -30.531288 -11.204481 -1.187828 -15.146061 50.584545 3041.734131
67 3041.560059 -30.531288 -11.204481 -1.106727 -15.848971 50.791046 3041.734131
68 3041.560059 -30.531288 -11.204481 -1.027981 -16.552120 50.997231 3041.734131
[planeAlignerRight]
66 -127.134727 -574.040222 -312.909271 -36.587143 -71.457870 -64.273407 666.031250
67 -127.135651 -574.038879 -312.908875 -36.586483 -71.449944 -64.278122 666.030090
68 -127.136589 -574.037415 -312.908478 -36.585770 -71.442001 -64.282837 666.028809
[R_Toe1_01]
66 -188.383347 -224.864899 21.052242 75.623001 -0.547654 -172.593979 294.101532
67 -188.383347 -224.864899 21.052242 75.733856 -0.531227 -172.623718 294.101532
68 -188.383347 -224.864899 21.052242 75.844696 -0.514740 -172.653397 294.101532
[R_Toe2_01]
66 200.637817 -220.002121 -148.787384 -94.438095 31.995380 -59.130730 332.857574
67 200.637817 -220.002121 -148.787384 -94.196358 32.074287 -59.137432 332.857574
68 200.637817 -220.002121 -148.787384 -93.954384 32.153214 -59.143723 332.857574
[R_Toe3_01]
66 188.606735 -220.092957 191.126343 -71.201393 -7.950531 -73.540024 347.192566
67 188.606735 -220.092957 191.126343 -71.390411 -7.989236 -73.560951 347.192566
68 188.606735 -220.092957 191.126343 -71.579437 -8.028017 -73.581795 347.192566
[planeLockWeightRight]
66 999.999939 0.000222 -0.000413 -0.011823 -0.004379 -0.000027 999.999939
67 999.999939 0.000227 -0.000414 -0.011823 -0.004379 -0.000027 999.999939
68 999.999939 0.000233 -0.000416 -0.011823 -0.004379 -0.000027 999.999939
[R_Toe1_02]
66 413.762085 0.000477 -0.000119 0.001394 -24.667917 0.001394 413.762085
67 413.762085 0.000477 -0.000119 0.001394 -24.667353 0.001394 413.762085
68 413.762085 0.000477 -0.000119 0.001394 -24.666792 0.001394 413.762085
[R_Toe1_03]
66 464.317810 0.000000 0.001088 0.006611 69.548210 0.006611 464.317810
67 464.317810 0.000000 0.001088 0.006612 69.551224 0.006612 464.317810
68 464.317810 0.000000 0.001088 0.006613 69.554214 0.006613 464.317810
[R_Toe2_02]
66 342.234741 -0.000954 0.000238 0.001197 -67.215675 0.001197 342.234741
67 342.234741 -0.000954 0.000238 0.001197 -67.216057 0.001197 342.234741
68 342.234741 -0.000954 0.000238 0.001197 -67.216423 0.001197 342.234741
[R_Toe2_03]
66 420.210846 0.000715 -0.000268 0.008164 73.470123 0.008164 420.210846
67 420.210846 0.000715 -0.000268 0.008178 73.497292 0.008178 420.210846
68 420.210846 0.000715 -0.000268 0.008191 73.524467 0.008191 420.210846
[R_Toe3_02]
66 329.270355 -0.000477 -0.000954 0.001185 -74.446144 0.001185 329.270355
67 329.270355 -0.000477 -0.000954 0.001184 -74.450989 0.001184 329.270355
68 329.270355 -0.000477 -0.000954 0.001184 -74.455864 0.001184 329.270355
[R_Toe3_03]
66 439.137939 0.000238 0.001431 -0.011343 83.129539 -0.007840 439.137939
67 439.137939 0.000238 0.001431 -0.011359 83.140823 -0.007856 439.137939
68 439.137939 0.000238 0.001431 -0.011375 83.152214 -0.007872 439.137939
[Rear_Leg02]
66 1162.777710 -0.029802 0.005960 -0.722612 -9.661693 -101.781319 1162.777710
67 1162.777710 -0.029802 0.005960 -0.761954 -9.679845 -102.466988 1162.777710
68 1162.777710 -0.029802 0.005960 -0.644659 -9.383882 -103.784592 1162.777710
[Rear_Leg03]
66 607.192505 -0.013351 -0.073195 0.006576 -0.001769 58.330074 607.192505
67 607.192505 -0.013351 -0.073195 0.006579 -0.001759 58.148754 607.192505
68 607.192505 -0.013351 -0.073195 0.006574 -0.001777 58.470894 607.192505
[Rear_Leg04]
66 995.874512 -0.020504 -0.011921 -0.036869 -0.014514 47.023365 995.874573
67 995.874512 -0.020504 -0.011921 -0.036846 -0.014571 46.845364 995.874573
68 995.874512 -0.020504 -0.011921 -0.037888 -0.016707 47.247509 995.874573
[Rear_Foot]
66 3096.176270 -0.067472 -0.041425 -137.651321 78.440735 58.734196 3096.176270
67 3096.176270 -0.067472 -0.041425 -136.590729 78.718613 59.638069 3096.176270
68 3096.176270 -0.067472 -0.041425 -135.481064 78.993126 60.591156 3096.176270
[planeAlignerCenter]
66 -15.465755 -102.096367 -591.250305 8.969522 -0.001525 179.998215 600.199768
67 -6.285680 -111.822823 -604.605774 9.354353 -0.001519 179.998215 614.891907
68 1.320771 -120.059700 -618.974731 9.739109 -0.001513 179.998199 630.512329
[Rear_Toe1_01]
66 0.653352 83.966492 -371.173737 0.686199 22.173702 91.397377 380.553192
67 0.653352 83.966492 -371.173737 0.457618 23.462221 90.858795 380.553192
68 0.653352 83.966492 -371.173737 0.213473 24.748297 90.309288 380.553192
[Rear_Toe2_01]
66 178.200760 -294.826019 -362.060547 -5.790437 26.538387 -68.484589 499.765686
67 178.200760 -294.826019 -362.060547 -5.993311 26.369747 -68.304008 499.765686
68 178.200760 -294.826019 -362.060547 -6.196481 26.201685 -68.123047 499.765686
[Rear_Toe3_01]
66 -153.359680 -308.780914 -362.060852 2.750140 24.663502 -111.793518 499.952881
67 -153.359680 -308.780914 -362.060852 2.899929 24.675205 -111.234734 499.952881
68 -153.359680 -308.780914 -362.060852 3.049848 24.685596 -110.675896 499.952881
[planeLockWeightCenter]
66 1000.000122 0.000305 -0.000120 -0.011814 -0.004373 -0.000015 1000.000122
67 1000.000122 0.000305 -0.000120 -0.011814 -0.004373 -0.000015 1000.000122
68 1000.000122 0.000305 -0.000120 -0.011814 -0.004373 -0.000015 1000.000122
[Rear_Toe1_02]
66 379.707825 0.194073 0.000477 -0.002648 -32.652176 -0.002648 379.707855
67 379.707825 0.194073 0.000477 -0.002648 -32.599350 -0.002648 379.707855
68 379.707825 0.194073 0.000477 -0.002649 -32.546501 -0.002649 379.707855
[Rear_Toe1_03]
66 500.129700 0.165701 0.000119 -179.970047 87.664101 -179.973541 500.129761
67 500.129700 0.165701 0.000119 -179.967224 87.877541 -179.970718 500.129761
68 500.129700 0.165701 0.000119 -179.963760 88.090126 -179.967270 500.129761
[Rear_Toe2_02]
66 340.494507 0.000238 -0.000954 0.001214 -60.524235 0.001214 340.494507
67 340.494507 0.000238 -0.000954 0.001221 -58.337021 0.001221 340.494507
68 340.494507 0.000238 -0.000954 0.001227 -56.151405 0.001227 340.494507
[Rear_Toe2_03]
66 433.103577 0.000000 0.000238 0.004146 57.081219 0.004146 433.103546
67 433.103577 0.000000 0.000238 0.003832 54.288429 0.003832 433.103546
68 433.103577 0.000000 0.000238 0.003563 51.495682 0.003563 433.103546
[Rear_Toe3_02]
66 340.494141 -0.000358 -0.000477 -0.002447 -53.640312 -0.002447 340.494171
67 340.494141 -0.000358 -0.000477 -0.002455 -52.501644 -0.002455 340.494171
68 340.494141 -0.000358 -0.000477 -0.002464 -51.362766 -0.002464 340.494171
[Rear_Toe3_03]
66 433.103577 0.001431 -0.000238 0.000243 48.607384 -0.003499 433.103546
67 433.103577 0.001431 -0.000238 0.000298 47.320362 -0.003461 433.103546
68 433.103577 0.001431 -0.000238 0.000351 46.033199 -0.003425 433.103546
[Back_Bone]
66 1312.175781 -701.934692 0.000954 -1.155370 -3.653080 -87.299881 1488.125488
67 1312.175781 -701.934692 0.000954 -1.341229 -3.652637 -86.934868 1488.125488
68 1312.175781 -701.934692 0.000954 -1.527075 -3.651012 -86.569862 1488.125488
[Head]
66 1406.159424 809.709290 0.001431 0.549776 -0.654318 7.210410 1622.625488
67 1406.159424 809.709290 0.001431 0.492565 -0.737099 7.270445 1622.625488
68 1406.159424 809.709290 0.001431 0.435268 -0.819819 7.330564 1622.625488
[Motor_Bone]
66 1158.364380 -417.834747 0.000477 -0.583240 2.827894 -103.156105 1231.419434
67 1158.364380 -417.834747 0.000477 0.001230 -0.033888 -106.020905 1231.419434
68 1158.364380 -417.834747 0.000477 2.853603 -2.893620 -108.875916 1231.419434
[Ping_Mechanism]
66 1307.618164 -460.234955 22.960041 0.000103 -0.000053 82.120995 1386.437378
67 1301.624878 -459.763184 22.313292 0.000103 -0.000053 82.120995 1380.618530
68 1295.631592 -459.291412 21.666533 0.000103 -0.000053 82.120995 1374.801636
[BN_LookIK]
66 193.241119 1380.371704 -0.002861 0.000000 89.965736 -31.038179 1393.832153
67 193.241119 1380.371704 -0.002861 0.000000 89.965736 -31.038179 1393.832153
68 193.241119 1380.371704 -0.002861 0.000000 89.965736 -31.038179 1393.832153
[bottomMouth]
66 -435.092926 615.759399 -0.000954 -0.000022 0.000016 73.527184 753.966492
67 -435.092926 615.759399 -0.000954 -0.000022 0.000016 73.527184 753.966492
68 -435.092926 615.759399 -0.000954 -0.000022 0.000016 73.527184 753.966492
[L_Mouth01]
66 554.440979 7.658243 838.222046 150.204178 23.759130 109.605339 1005.027161
67 554.440979 7.658243 838.222046 150.204178 23.759130 109.605339 1005.027161
68 554.440979 7.658243 838.222046 150.204178 23.759130 109.605339 1005.027161
[L_mouthFront]
66 551.629089 934.514771 339.150421 0.000081 2.804060 79.119301 1136.941284
67 551.629089 934.514771 339.150421 0.000081 2.804060 79.119301 1136.941284
68 551.629089 934.514771 339.150421 0.000081 2.804060 79.119301 1136.941284
[mouthGun]
66 55.332661 1627.420898 0.000000 0.000023 0.000009 -11.038128 1628.361328
67 55.332661 1627.420898 0.000000 0.000023 0.000009 -11.038128 1628.361328
68 55.332661 1627.420898 0.000000 0.000023 0.000009 -11.038128 1628.361328
[R_Mouth01]
66 554.442383 7.659197 -838.223938 29.795891 -23.759109 109.605331 1005.029541
67 554.442383 7.659197 -838.223938 29.795891 -23.759109 109.605331 1005.029541
68 554.442383 7.659197 -838.223938 29.795891 -23.759109 109.605331 1005.029541
[R_mouthFront]
66 551.629089 934.514282 -339.151367 0.000029 -2.803930 79.119133 1136.941162
67 551.629089 934.514282 -339.151367 0.000029 -2.803930 79.119133 1136.941162
68 551.629089 934.514282 -339.151367 0.000029 -2.803930 79.119133 1136.941162
[TopMouth]
66 461.269867 -56.106091 -0.008583 -0.000059 -0.000268 92.025169 464.669525
67 461.269867 -56.106091 -0.008583 -0.000059 -0.000268 92.025169 464.669525
68 461.269867 -56.106091 -0.008583 -0.000059 -0.000268 92.025169 464.669525
[weapon_bone]
66 -987.239868 1448.372803 0.001431 0.000000 89.965736 -31.038221 1752.833740
67 -987.239868 1448.372803 0.001431 0.000000 89.965736 -31.038221 1752.833740
68 -987.239868 1448.372803 0.001431 0.000000 89.965736 -31.038221 1752.833740
